<svg width="1983" height="495" viewBox="0 0 1983 495" fill="none" xmlns="http://www.w3.org/2000/svg">
<path d="M125.21 334.409L125.21 334.409C83.462 275.829 88.8657 193.977 141.421 141.421C193.977 88.8656 275.829 83.4619 334.409 125.21L334.234 125.385L334.039 125.58L333.844 125.776L333.647 125.972L333.45 126.17L333.251 126.368L333.052 126.567L332.852 126.767L332.651 126.968L332.45 127.17L332.247 127.372L332.043 127.576L331.839 127.78L331.634 127.986L331.428 128.192L331.221 128.399L331.013 128.607L330.804 128.815L330.595 129.025L330.384 129.235L330.173 129.446L329.961 129.659L329.748 129.872L329.534 130.085L329.319 130.3L329.104 130.515L328.888 130.732L328.67 130.949L328.452 131.167L328.234 131.386L328.014 131.606L327.793 131.826L327.572 132.047L327.35 132.27L327.127 132.493L326.903 132.716L326.678 132.941L326.453 133.167L326.226 133.393L325.999 133.62L325.771 133.848L325.542 134.077L325.313 134.307L325.082 134.537L324.851 134.768L324.619 135L324.386 135.233L324.152 135.467L323.918 135.701L323.683 135.937L323.446 136.173L323.209 136.41L322.972 136.648L322.733 136.886L322.494 137.125L322.254 137.366L322.013 137.607L321.771 137.848L321.528 138.091L321.285 138.334L321.041 138.578L320.796 138.823L320.55 139.069L320.304 139.315L320.057 139.563L319.809 139.811L319.56 140.06L319.31 140.309L319.06 140.56L318.809 140.811L318.557 141.063L318.304 141.316L318.05 141.569L317.796 141.823L317.541 142.078L317.285 142.334L317.029 142.591L316.771 142.848L316.513 143.106L316.254 143.365L315.994 143.625L315.734 143.885L315.473 144.146L315.211 144.408L314.948 144.671L314.685 144.935L314.421 145.199L314.156 145.464L313.89 145.729L313.623 145.996L313.356 146.263L313.088 146.531L312.82 146.8L312.55 147.069L312.28 147.339L312.009 147.61L311.737 147.882L311.465 148.154L311.192 148.427L310.918 148.701L310.643 148.976L310.368 149.251L310.092 149.527L309.815 149.804L309.538 150.082L309.26 150.36L308.981 150.639L308.701 150.918L308.42 151.199L308.139 151.48L307.857 151.762L307.575 152.044L307.292 152.328L307.008 152.612L306.723 152.896L306.438 153.182L306.151 153.468L305.865 153.755L305.577 154.042L305.289 154.33L305 154.619L304.71 154.909L304.42 155.199L304.129 155.49L303.837 155.782L303.545 156.075L303.252 156.368L302.958 156.662L302.663 156.956L302.368 157.251L302.072 157.547L301.776 157.844L301.478 158.141L301.18 158.439L300.882 158.738L300.583 159.037L300.283 159.337L299.982 159.637L299.681 159.939L299.379 160.241L299.076 160.543L298.773 160.847L298.468 161.151L298.164 161.456L297.858 161.761L297.552 162.067L297.246 162.374L296.938 162.681L296.63 162.989L296.322 163.298L296.012 163.607L295.702 163.917L295.392 164.228L295.08 164.539L294.769 164.851L294.456 165.163L294.143 165.477L293.829 165.791L293.514 166.105L293.199 166.42L292.883 166.736L292.567 167.053L292.25 167.37L291.932 167.687L291.614 168.006L291.294 168.325L290.975 168.644L290.655 168.965L290.334 169.286L290.012 169.607L289.69 169.929L289.367 170.252L289.044 170.576L288.72 170.9L288.395 171.224L288.07 171.55L287.744 171.876L287.417 172.202L287.09 172.529L286.762 172.857L286.434 173.185L286.105 173.514L285.775 173.844L285.445 174.174L285.114 174.505L284.783 174.836L284.451 175.168L284.118 175.501L283.785 175.834L283.451 176.168L283.117 176.502L282.782 176.837L282.446 177.173L282.11 177.509L281.773 177.846L281.436 178.183L281.098 178.521L280.759 178.86L280.42 179.199L280.08 179.539L279.74 179.879L279.399 180.22L279.058 180.562L278.716 180.904L278.373 181.246L278.03 181.589L277.686 181.933L277.342 182.278L276.997 182.623L276.651 182.968L276.305 183.314L275.959 183.661L275.611 184.008L275.264 184.356L274.915 184.704L274.566 185.053L274.217 185.402L273.867 185.752L273.516 186.103L273.165 186.454L272.814 186.806L272.461 187.158L272.109 187.511L271.755 187.864L271.401 188.218L271.047 188.572L270.692 188.927L270.337 189.283L269.981 189.639L269.624 189.995L269.267 190.352L268.909 190.71L268.551 191.068L268.192 191.427L267.833 191.786L267.473 192.146L267.113 192.506L266.752 192.867L266.391 193.229L266.029 193.591L265.666 193.953L265.303 194.316L264.94 194.679L264.576 195.043L264.212 195.408L263.847 195.773L263.481 196.138L263.115 196.504L262.748 196.871L262.381 197.238L262.014 197.606L261.646 197.974L261.277 198.342L260.908 198.711L260.538 199.081L260.168 199.451L259.798 199.822L259.427 200.193L259.055 200.564L258.683 200.936L258.31 201.309L257.937 201.682L257.564 202.056L257.19 202.43L256.815 202.804L256.44 203.179L256.065 203.555L255.689 203.931L255.312 204.307L254.935 204.684L254.558 205.061L254.18 205.439L253.802 205.818L253.423 206.197L253.043 206.576L252.664 206.956L252.283 207.336L251.903 207.717L251.522 208.098L251.14 208.479L250.758 208.862L250.375 209.244L249.992 209.627L249.609 210.011L249.225 210.395L248.84 210.779L248.455 211.164L248.07 211.549L247.684 211.935L247.298 212.321L246.911 212.708L246.524 213.095L246.137 213.483L245.749 213.871L245.36 214.259L244.971 214.648L244.582 215.037L244.192 215.427L243.802 215.817L243.411 216.208L243.02 216.599L242.629 216.991L242.237 217.383L241.844 217.775L241.452 218.168L241.058 218.561L240.665 218.955L240.271 219.349L239.876 219.743L239.481 220.138L239.086 220.533L238.69 220.929L238.294 221.325L237.897 221.722L237.5 222.119L237.103 222.516L236.705 222.914L236.307 223.312L235.908 223.711L235.509 224.11L235.11 224.509L234.71 224.909L234.31 225.31L233.909 225.71L233.509 226.11L233.109 226.51L232.71 226.91L232.31 227.309L231.911 227.709L231.512 228.108L231.113 228.507L230.714 228.905L230.315 229.304L229.917 229.702L229.519 230.1L229.121 230.498L228.724 230.896L228.326 231.293L227.929 231.69L227.532 232.087L227.135 232.484L226.739 232.88L226.343 233.277L225.947 233.673L225.551 234.068L225.155 234.464L224.76 234.859L224.365 235.254L223.97 235.649L223.576 236.043L223.182 236.438L222.788 236.832L222.394 237.225L222 237.619L221.607 238.012L221.214 238.405L220.822 238.798L220.429 239.19L220.037 239.582L219.645 239.974L219.254 240.366L218.862 240.757L218.471 241.148L218.081 241.539L217.69 241.929L217.3 242.319L216.91 242.709L216.521 243.099L216.131 243.488L215.742 243.877L215.354 244.266L214.965 244.654L214.577 245.042L214.189 245.43L213.802 245.817L213.415 246.204L213.028 246.591L212.642 246.978L212.255 247.364L211.87 247.75L211.484 248.135L211.099 248.521L210.714 248.905L210.329 249.29L209.945 249.674L209.561 250.058L209.178 250.442L208.795 250.825L208.412 251.208L208.029 251.59L207.647 251.972L207.265 252.354L206.884 252.736L206.503 253.117L206.122 253.497L205.742 253.878L205.361 254.258L204.982 254.638L204.603 255.017L204.224 255.396L203.845 255.774L203.467 256.152L203.089 256.53L202.712 256.908L202.335 257.285L201.958 257.661L201.582 258.038L201.206 258.414L200.83 258.789L200.455 259.164L200.08 259.539L199.706 259.913L199.332 260.287L198.958 260.661L198.585 261.034L198.213 261.407L197.84 261.779L197.468 262.151L197.097 262.522L196.726 262.894L196.355 263.264L195.985 263.634L195.615 264.004L195.246 264.374L194.877 264.743L194.508 265.111L194.14 265.479L193.772 265.847L193.405 266.214L193.038 266.581L192.672 266.947L192.306 267.313L191.94 267.679L191.575 268.044L191.211 268.409L190.847 268.773L190.483 269.136L190.12 269.5L189.757 269.862L189.395 270.225L189.033 270.587L188.671 270.948L188.31 271.309L187.95 271.669L187.59 272.029L187.23 272.389L186.871 272.748L186.513 273.107L186.155 273.465L185.797 273.822L185.44 274.179L185.083 274.536L184.727 274.892L184.372 275.248L184.016 275.603L183.662 275.958L183.308 276.312L182.954 276.665L182.601 277.018L182.248 277.371L181.896 277.723L181.544 278.075L181.193 278.426L180.843 278.777L180.493 279.127L180.143 279.476L179.794 279.825L179.446 280.174L179.098 280.522L178.75 280.869L178.403 281.216L178.057 281.562L177.711 281.908L177.366 282.254L177.021 282.598L176.677 282.943L176.333 283.286L175.99 283.629L175.647 283.972L175.305 284.314L174.964 284.656L174.623 284.996L174.282 285.337L173.943 285.677L173.603 286.016L173.265 286.355L172.927 286.693L172.589 287.03L172.252 287.367L171.916 287.704L171.58 288.039L171.245 288.375L170.91 288.709L170.576 289.043L170.243 289.377L169.91 289.71L169.577 290.042L169.246 290.374L168.915 290.705L168.584 291.035L168.254 291.365L167.925 291.695L167.596 292.023L167.268 292.351L166.94 292.679L166.614 293.006L166.287 293.332L165.962 293.658L165.637 293.983L165.312 294.307L164.989 294.631L164.665 294.954L164.343 295.277L164.021 295.598L163.7 295.92L163.379 296.24L163.059 296.56L162.74 296.88L162.421 297.198L162.103 297.516L161.785 297.834L161.469 298.151L161.153 298.467L160.837 298.782L160.522 299.097L160.208 299.411L159.895 299.725L159.582 300.038L159.27 300.35L158.958 300.661L158.647 300.972L158.337 301.282L158.028 301.592L157.719 301.9L157.411 302.209L157.103 302.516L156.797 302.823L156.49 303.129L156.185 303.434L155.88 303.739L155.576 304.043L155.273 304.346L154.97 304.649L154.668 304.951L154.367 305.252L154.067 305.553L153.767 305.852L153.468 306.151L153.169 306.45L152.872 306.748L152.575 307.045L152.279 307.341L151.983 307.636L151.688 307.931L151.394 308.225L151.101 308.518L150.808 308.811L150.516 309.103L150.225 309.394L149.935 309.685L149.645 309.974L149.356 310.263L149.068 310.551L148.78 310.839L148.494 311.126L148.208 311.411L147.923 311.697L147.638 311.981L147.355 312.265L147.072 312.548L146.789 312.83L146.508 313.111L146.227 313.392L145.947 313.672L145.668 313.951L145.39 314.229L145.113 314.507L144.836 314.784L144.56 315.06L144.285 315.335L144.01 315.609L143.736 315.883L143.464 316.156L143.192 316.428L142.92 316.699L142.65 316.97L142.38 317.239L142.111 317.508L141.843 317.776L141.576 318.043L141.309 318.31L141.044 318.576L140.779 318.84L140.515 319.104L140.252 319.368L139.989 319.63L139.728 319.892L139.467 320.152L139.207 320.412L138.948 320.671L138.69 320.93L138.432 321.187L138.176 321.444L137.92 321.699L137.665 321.954L137.411 322.208L137.158 322.462L136.905 322.714L136.654 322.965L136.403 323.216L136.153 323.466L135.904 323.715L135.656 323.963L135.409 324.21L135.163 324.457L134.917 324.702L134.673 324.947L134.429 325.191L134.186 325.434L133.944 325.676L133.703 325.917L133.462 326.157L133.223 326.396L132.984 326.635L132.747 326.873L132.51 327.109L132.274 327.345L132.039 327.58L131.805 327.814L131.572 328.047L131.34 328.28L131.108 328.511L130.878 328.742L130.648 328.971L130.42 329.2L130.192 329.427L129.965 329.654L129.739 329.88L129.514 330.105L129.29 330.329L129.067 330.552L128.845 330.775L128.623 330.996L128.403 331.216L128.184 331.436L127.965 331.654L127.747 331.872L127.531 332.089L127.315 332.304L127.1 332.519L126.887 332.733L126.674 332.946L126.462 333.158L126.251 333.368L126.041 333.578L125.832 333.788L125.624 333.996L125.417 334.203L125.21 334.409Z" stroke="#C0C0C0" stroke-width="50"/>
<path d="M369.764 160.566L369.765 160.565C411.513 219.146 406.109 300.998 353.553 353.553C300.998 406.109 219.146 411.513 160.566 369.764L160.741 369.59L160.935 369.395L161.131 369.199L161.328 369.002L161.525 368.805L161.723 368.607L161.922 368.408L162.122 368.208L162.323 368.007L162.525 367.805L162.728 367.602L162.931 367.399L163.136 367.194L163.341 366.989L163.547 366.783L163.754 366.576L163.962 366.368L164.171 366.159L164.38 365.95L164.591 365.739L164.802 365.528L165.014 365.316L165.227 365.103L165.441 364.889L165.655 364.675L165.871 364.459L166.087 364.243L166.304 364.026L166.522 363.808L166.741 363.589L166.961 363.369L167.181 363.149L167.403 362.927L167.625 362.705L167.848 362.482L168.072 362.258L168.297 362.033L168.522 361.808L168.748 361.582L168.976 361.354L169.204 361.126L169.432 360.898L169.662 360.668L169.892 360.438L170.124 360.206L170.356 359.974L170.589 359.741L170.822 359.508L171.057 359.273L171.292 359.038L171.528 358.802L171.765 358.565L172.003 358.327L172.242 358.088L172.481 357.849L172.721 357.609L172.962 357.368L173.204 357.126L173.446 356.884L173.69 356.64L173.934 356.396L174.179 356.151L174.424 355.906L174.671 355.659L174.918 355.412L175.166 355.164L175.415 354.915L175.665 354.665L175.915 354.415L176.166 354.164L176.418 353.912L176.671 353.659L176.924 353.406L177.179 353.151L177.434 352.896L177.69 352.64L177.946 352.384L178.204 352.126L178.462 351.868L178.721 351.609L178.98 351.35L179.241 351.089L179.502 350.828L179.764 350.566L180.026 350.304L180.29 350.04L180.554 349.776L180.819 349.511L181.085 349.245L181.351 348.979L181.618 348.712L181.886 348.444L182.155 348.175L182.425 347.905L182.695 347.635L182.966 347.364L183.237 347.093L183.51 346.82L183.783 346.547L184.057 346.273L184.331 345.999L184.607 345.723L184.883 345.447L185.159 345.171L185.437 344.893L185.715 344.615L185.994 344.336L186.274 344.056L186.554 343.776L186.835 343.495L187.117 343.213L187.4 342.93L187.683 342.647L187.967 342.363L188.252 342.078L188.537 341.793L188.823 341.507L189.11 341.22L189.398 340.932L189.686 340.644L189.975 340.355L190.264 340.066L190.555 339.775L190.846 339.484L191.138 339.192L191.43 338.9L191.723 338.607L192.017 338.313L192.311 338.019L192.607 337.723L192.903 337.427L193.199 337.131L193.496 336.834L193.794 336.536L194.093 336.237L194.392 335.938L194.692 335.638L194.993 335.337L195.294 335.036L195.596 334.734L195.899 334.431L196.202 334.128L196.506 333.824L196.811 333.519L197.116 333.214L197.422 332.908L197.729 332.601L198.036 332.294L198.344 331.986L198.653 331.677L198.962 331.368L199.272 331.058L199.583 330.747L199.894 330.436L200.206 330.124L200.519 329.811L200.832 329.498L201.146 329.184L201.46 328.87L201.776 328.554L202.092 328.238L202.408 327.922L202.725 327.605L203.043 327.287L203.361 326.969L203.68 326.65L204 326.33L204.32 326.01L204.641 325.689L204.963 325.367L205.285 325.045L205.608 324.722L205.931 324.399L206.255 324.075L206.58 323.75L206.905 323.425L207.231 323.099L207.557 322.773L207.885 322.445L208.212 322.118L208.541 321.789L208.87 321.46L209.199 321.131L209.53 320.8L209.86 320.47L210.192 320.138L210.524 319.806L210.856 319.474L211.19 319.14L211.523 318.807L211.858 318.472L212.193 318.137L212.528 317.802L212.865 317.465L213.201 317.129L213.539 316.791L213.877 316.453L214.215 316.115L214.555 315.775L214.894 315.436L215.235 315.095L215.575 314.755L215.917 314.413L216.259 314.071L216.602 313.728L216.945 313.385L217.289 313.041L217.633 312.697L217.978 312.352L218.323 312.007L218.67 311.66L219.016 311.314L219.363 310.967L219.711 310.619L220.059 310.271L220.408 309.922L220.758 309.572L221.108 309.222L221.458 308.872L221.809 308.521L222.161 308.169L222.513 307.817L222.866 307.464L223.219 307.111L223.573 306.757L223.928 306.402L224.283 306.047L224.638 305.692L224.994 305.336L225.351 304.979L225.708 304.622L226.066 304.264L226.424 303.906L226.782 303.548L227.142 303.188L227.501 302.829L227.862 302.468L228.223 302.107L228.584 301.746L228.946 301.384L229.308 301.022L229.671 300.659L230.035 300.295L230.399 299.931L230.763 299.567L231.128 299.202L231.494 298.836L231.86 298.47L232.226 298.104L232.593 297.737L232.961 297.369L233.329 297.001L233.698 296.632L234.067 296.263L234.436 295.894L234.806 295.524L235.177 295.153L235.548 294.782L235.92 294.41L236.292 294.038L236.664 293.666L237.037 293.293L237.411 292.919L237.785 292.545L238.159 292.171L238.534 291.796L238.91 291.42L239.286 291.044L239.662 290.668L240.039 290.291L240.417 289.913L240.795 289.535L241.173 289.157L241.552 288.778L241.931 288.399L242.311 288.019L242.691 287.639L243.072 287.258L243.453 286.877L243.835 286.495L244.217 286.113L244.6 285.73L244.983 285.347L245.366 284.964L245.75 284.58L246.135 284.195L246.519 283.811L246.905 283.425L247.291 283.039L247.677 282.653L248.063 282.267L248.451 281.879L248.838 281.492L249.226 281.104L249.615 280.715L250.003 280.327L250.393 279.937L250.783 279.547L251.173 279.157L251.563 278.767L251.955 278.375L252.346 277.984L252.738 277.592L253.13 277.2L253.523 276.807L253.916 276.414L254.31 276.02L254.704 275.626L255.099 275.231L255.494 274.836L255.889 274.441L256.285 274.045L256.681 273.649L257.077 273.253L257.474 272.856L257.872 272.458L258.27 272.06L258.668 271.662L259.066 271.264L259.465 270.865L259.865 270.465L260.265 270.065L260.665 269.665L261.065 269.265L261.465 268.865L261.865 268.465L262.265 268.065L262.665 267.665L263.064 267.266L263.463 266.867L263.862 266.468L264.261 266.069L264.659 265.671L265.058 265.272L265.456 264.874L265.854 264.477L266.251 264.079L266.649 263.681L267.046 263.284L267.443 262.887L267.839 262.491L268.236 262.094L268.632 261.698L269.028 261.302L269.424 260.906L269.819 260.511L270.215 260.115L270.61 259.72L271.004 259.326L271.399 258.931L271.793 258.537L272.187 258.143L272.581 257.749L272.974 257.356L273.368 256.962L273.761 256.569L274.153 256.177L274.546 255.784L274.938 255.392L275.33 255L275.721 254.609L276.112 254.218L276.503 253.827L276.894 253.436L277.285 253.045L277.675 252.655L278.065 252.265L278.454 251.876L278.843 251.487L279.232 251.098L279.621 250.709L280.009 250.321L280.398 249.932L280.785 249.545L281.173 249.157L281.56 248.77L281.947 248.383L282.333 247.997L282.719 247.611L283.105 247.225L283.491 246.839L283.876 246.454L284.261 246.069L284.645 245.685L285.03 245.3L285.413 244.917L285.797 244.533L286.18 244.15L286.563 243.767L286.946 243.384L287.328 243.002L287.71 242.62L288.091 242.239L288.472 241.858L288.853 241.477L289.233 241.097L289.613 240.717L289.993 240.337L290.372 239.958L290.751 239.579L291.13 239.2L291.508 238.822L291.886 238.444L292.263 238.067L292.64 237.69L293.017 237.313L293.393 236.937L293.769 236.561L294.145 236.185L294.52 235.81L294.894 235.436L295.269 235.061L295.643 234.687L296.016 234.314L296.389 233.941L296.762 233.568L297.134 233.196L297.506 232.824L297.878 232.452L298.249 232.081L298.62 231.71L298.99 231.34L299.36 230.97L299.729 230.601L300.098 230.232L300.467 229.863L300.835 229.495L301.202 229.128L301.57 228.76L301.937 228.393L302.303 228.027L302.669 227.661L303.034 227.296L303.399 226.931L303.764 226.566L304.128 226.202L304.492 225.838L304.855 225.475L305.218 225.112L305.58 224.75L305.942 224.388L306.303 224.027L306.664 223.666L307.025 223.305L307.385 222.945L307.744 222.586L308.103 222.227L308.462 221.868L308.82 221.51L309.178 221.152L309.535 220.795L309.891 220.439L310.247 220.083L310.603 219.727L310.958 219.372L311.313 219.017L311.667 218.663L312.021 218.309L312.374 217.956L312.727 217.604L313.079 217.251L313.43 216.9L313.781 216.549L314.132 216.198L314.482 215.848L314.832 215.498L315.181 215.149L315.529 214.801L315.877 214.453L316.225 214.105L316.571 213.759L316.918 213.412L317.264 213.066L317.609 212.721L317.954 212.376L318.298 212.032L318.642 211.688L318.985 211.345L319.327 211.003L319.669 210.661L320.011 210.319L320.352 209.978L320.692 209.638L321.032 209.298L321.371 208.959L321.71 208.62L322.048 208.282L322.386 207.944L322.723 207.607L323.059 207.271L323.395 206.935L323.73 206.6L324.065 206.265L324.399 205.931L324.732 205.598L325.065 205.265L325.397 204.933L325.729 204.601L326.06 204.27L326.391 203.939L326.721 203.609L327.05 203.28L327.379 202.951L327.707 202.623L328.034 202.296L328.361 201.969L328.687 201.643L329.013 201.317L329.338 200.992L329.662 200.668L329.986 200.344L330.309 200.021L330.632 199.698L330.954 199.376L331.275 199.055L331.596 198.734L331.916 198.414L332.235 198.095L332.554 197.776L332.872 197.458L333.189 197.141L333.506 196.824L333.822 196.508L334.138 196.192L334.452 195.878L334.767 195.563L335.08 195.25L335.393 194.937L335.705 194.625L336.017 194.313L336.327 194.003L336.638 193.692L336.947 193.383L337.256 193.074L337.564 192.766L337.871 192.459L338.178 192.152L338.484 191.846L338.79 191.54L339.094 191.236L339.398 190.932L339.702 190.628L340.004 190.326L340.306 190.024L340.607 189.723L340.908 189.422L341.208 189.122L341.507 188.823L341.805 188.525L342.103 188.227L342.4 187.93L342.696 187.634L342.992 187.338L343.286 187.044L343.581 186.749L343.874 186.456L344.167 186.163L344.458 185.872L344.75 185.58L345.04 185.29L345.33 185L345.619 184.711L345.907 184.423L346.194 184.136L346.481 183.849L346.767 183.563L347.052 183.278L347.337 182.993L347.62 182.71L347.903 182.427L348.185 182.145L348.467 181.863L348.747 181.583L349.027 181.303L349.306 181.024L349.585 180.745L349.862 180.468L350.139 180.191L350.415 179.915L350.69 179.64L350.965 179.365L351.238 179.092L351.511 178.819L351.783 178.547L352.054 178.276L352.325 178.005L352.595 177.735L352.863 177.467L353.132 177.198L353.399 176.931L353.665 176.665L353.931 176.399L354.196 176.134L354.46 175.87L354.723 175.607L354.985 175.345L355.247 175.083L355.508 174.822L355.768 174.562L356.027 174.303L356.285 174.045L356.542 173.788L356.799 173.531L357.055 173.275L357.31 173.02L357.564 172.766L357.817 172.513L358.069 172.261L358.321 172.009L358.571 171.759L358.821 171.509L359.07 171.26L359.318 171.012L359.566 170.764L359.812 170.518L360.058 170.272L360.302 170.028L360.546 169.784L360.789 169.541L361.031 169.299L361.272 169.058L361.512 168.818L361.752 168.578L361.99 168.34L362.228 168.102L362.465 167.865L362.701 167.629L362.936 167.394L363.17 167.16L363.403 166.927L363.635 166.695L363.866 166.464L364.097 166.233L364.326 166.004L364.555 165.775L364.783 165.547L365.01 165.32L365.236 165.094L365.461 164.869L365.685 164.645L365.908 164.422L366.13 164.2L366.351 163.979L366.572 163.758L366.791 163.539L367.01 163.32L367.227 163.103L367.444 162.886L367.66 162.67L367.874 162.456L368.088 162.242L368.301 162.029L368.513 161.817L368.724 161.606L368.934 161.396L369.143 161.187L369.351 160.979L369.558 160.772L369.764 160.566Z" stroke="#909090" stroke-width="50"/>
<path d="M137.886 357.089C137.886 357.089 182.97 312.004 243.502 251.473C304.033 190.942 357.089 137.886 357.089 137.886C417.62 198.417 417.62 296.558 357.089 357.089C296.558 417.62 198.417 417.62 137.886 357.089Z" fill="#424242"/>
<path d="M357.089 137.886C357.089 137.886 312.004 182.97 251.473 243.502C190.942 304.033 137.886 357.089 137.886 357.089C77.3546 296.558 77.3546 198.417 137.886 137.886C198.417 77.3545 296.558 77.3545 357.089 137.886Z" fill="#909090"/>
<path d="M788.399 105.375C779.399 105.375 773.399 110.25 769.649 119.25L696.524 298.875L623.024 119.25C619.649 110.25 613.274 105.375 604.274 105.375C593.399 105.375 584.774 114 584.774 124.5C584.774 127.875 585.524 131.625 587.774 135.75L677.399 347.625C681.149 356.625 687.524 361.125 696.149 361.125C705.149 361.125 711.524 356.625 715.274 347.625L804.899 135.75C806.774 131.625 807.899 127.875 807.899 124.5C807.899 114 799.274 105.375 788.399 105.375ZM974.232 105.375C901.482 105.375 844.482 161.625 844.482 233.25C844.482 304.875 901.482 361.125 974.232 361.125C1046.98 361.125 1104.36 304.875 1104.36 233.25C1104.36 162 1046.98 105.375 974.232 105.375ZM974.607 141.75C1025.61 141.75 1063.48 180.75 1063.48 232.875C1063.48 285.75 1025.61 324.75 974.607 324.75C923.232 324.75 885.732 286.125 885.732 232.875C885.732 180.375 923.232 141.75 974.607 141.75ZM1244.33 109.5H1187.71C1175.71 109.5 1167.08 118.125 1167.08 130.125V336.375C1167.08 348.375 1175.71 357 1187.71 357H1244.33C1324.21 357 1379.33 306.75 1379.33 232.875C1379.33 158.625 1325.33 109.5 1244.33 109.5ZM1243.96 145.5C1301.71 145.5 1338.08 179.25 1338.08 232.875C1338.08 286.125 1300.58 321.375 1243.96 321.375H1206.83V145.5H1243.96ZM1541.1 361.125C1601.85 361.125 1642.35 319.875 1642.35 256.875V125.625C1642.35 114 1633.73 105.375 1622.48 105.375C1610.85 105.375 1602.6 114 1602.6 125.625V259.5C1602.6 299.625 1578.98 324.75 1541.1 324.75C1502.85 324.75 1478.85 299.625 1478.85 259.5V125.625C1478.85 114 1470.6 105.375 1458.98 105.375C1447.73 105.375 1439.1 114 1439.1 125.625V256.875C1439.1 319.875 1479.23 361.125 1541.1 361.125ZM1932.73 105.375C1924.1 105.375 1918.48 109.125 1910.98 121.5L1834.48 241.5L1757.98 121.5C1750.48 109.125 1744.85 105.375 1736.23 105.375C1725.35 105.375 1717.1 114 1717.1 125.625V340.875C1717.1 352.5 1725.73 361.125 1736.98 361.125C1748.23 361.125 1756.85 352.5 1756.85 340.875V190.125L1814.6 280.875C1820.23 290.25 1826.23 294 1834.48 294C1842.73 294 1848.35 290.25 1854.35 280.875L1912.1 190.125V340.875C1912.1 352.5 1920.73 361.125 1931.98 361.125C1943.23 361.125 1951.85 352.5 1951.85 340.875V125.625C1951.85 114 1943.6 105.375 1932.73 105.375Z" fill="#424242"/>
</svg>
